<svg width="300" height="56" viewBox="0 0 300 56" fill="none" xmlns="http://www.w3.org/2000/svg">
<path d="M300 0.260254H0V55.2603H300V0.260254Z" fill="white"/>
<path d="M60.1849 3.26025H3.00391V52.2603H60.1849V3.26025Z" fill="#DB2B45"/>
<path d="M29.7881 43.864H21.5064L33.2212 11.6562H41.6719L29.7881 43.864Z" fill="white"/>
<path d="M15.7599 43.864H7.48874L19.2035 11.6562H27.6542L15.7599 43.864Z" fill="white"/>
<path d="M43.8056 43.864H35.5345L47.2493 11.6562H55.7L43.8056 43.864Z" fill="white"/>
<path d="M296.998 3.26025H60.2113V52.2603H296.998V3.26025Z" fill="black"/>
<path d="M86.345 32.6064H81.4964V44.0993H73.5845V11.8916H86.345C93.4859 11.8916 97.331 16.9515 97.331 22.2437C97.331 27.536 93.4859 32.6064 86.345 32.6064ZM85.9753 19.0008H81.4964V25.5184H85.9753C86.4189 25.5436 86.8629 25.4781 87.2803 25.3257C87.6976 25.1734 88.0794 24.9374 88.4024 24.6323C88.7254 24.3272 88.9826 23.9594 89.1585 23.5514C89.3343 23.1434 89.425 22.7038 89.425 22.2596C89.425 21.8153 89.3343 21.3757 89.1585 20.9677C88.9826 20.5597 88.7254 20.1919 88.4024 19.8868C88.0794 19.5817 87.6976 19.3458 87.2803 19.1934C86.8629 19.041 86.4189 18.9755 85.9753 19.0008V19.0008Z" fill="white"/>
<path d="M115.585 44.0993L114.095 39.3036H104.187L102.602 44.0993H94.3416L106.056 11.8916H112.162L123.919 44.0993H115.585ZM109.246 24.1029L106.405 32.7332H112.014L109.246 24.1029Z" fill="white"/>
<path d="M143.398 44.0993L137.704 32.1099H135.032V44.0993H127.088V11.8916H139.87C147.021 11.8916 150.866 16.9515 150.866 22.2437C150.883 24.0092 150.394 25.7426 149.458 27.2397C148.523 28.7369 147.179 29.9355 145.584 30.6944L152.556 44.131L143.398 44.0993ZM139.511 19.0008H135.032V25.5184H139.511C139.954 25.5436 140.398 25.4781 140.815 25.3257C141.233 25.1734 141.615 24.9374 141.938 24.6323C142.261 24.3272 142.518 23.9594 142.694 23.5514C142.87 23.1434 142.96 22.7038 142.96 22.2596C142.96 21.8153 142.87 21.3757 142.694 20.9677C142.518 20.5597 142.261 20.1919 141.938 19.8868C141.615 19.5817 141.233 19.3458 140.815 19.1934C140.398 19.041 139.954 18.9755 139.511 19.0008V19.0008Z" fill="white"/>
<path d="M174.623 44.0993L167.229 30.8846L164.514 34.0536V44.1416H156.665V11.8916H164.482V23.2895L173.81 11.8916H183.486L172.437 24.9162L183.792 44.0993H174.623Z" fill="white"/>
<path d="M196.806 44.3528C191.884 44.3528 187.849 43.4549 184.595 40.1274L189.665 35.057C191.334 36.7366 194.282 37.3176 196.859 37.3176C199.975 37.3176 201.465 36.2612 201.465 34.4232C201.506 33.7333 201.283 33.0537 200.842 32.5218C200.246 32.0193 199.506 31.7196 198.729 31.6662L194.842 31.1274C192.43 30.9193 190.156 29.9161 188.377 28.2753C187.598 27.396 187 26.371 186.62 25.2596C186.239 24.1482 186.082 22.9723 186.158 21.8C186.158 15.9267 190.584 11.6274 197.915 11.6274C202.532 11.6274 206.018 12.6838 208.775 15.4725L203.799 20.4479C201.761 18.4091 199.099 18.5465 197.694 18.5465C194.926 18.5465 193.806 20.131 193.806 21.5359C193.809 22.0953 194.033 22.6309 194.43 23.0253C195.039 23.5864 195.822 23.9219 196.648 23.976L200.546 24.5148C202.892 24.696 205.116 25.6339 206.884 27.1873C208.606 28.8669 209.282 31.2542 209.282 34.2436C209.282 40.7929 203.63 44.3528 196.806 44.3528Z" fill="white"/>
<path d="M214.479 44.0993V11.8916H222.401V44.0993H214.479Z" fill="white"/>
<path d="M249.856 40.9306C248.69 42.0076 247.323 42.8424 245.832 43.3864C244.341 43.9304 242.758 44.1728 241.172 44.0996H229.225V11.8919H241.172C242.757 11.821 244.34 12.0646 245.831 12.6085C247.321 13.1524 248.689 13.9858 249.856 15.0609C253.606 18.8215 253.204 22.9412 253.204 28.001C253.204 33.0609 253.606 37.1701 249.856 40.9306ZM244.426 20.7546C244.014 20.1385 243.443 19.6454 242.773 19.3274C242.104 19.0094 241.361 18.8784 240.623 18.9482H237.148V37.0433H240.623C241.362 37.112 242.106 36.9794 242.775 36.6595C243.445 36.3396 244.015 35.8444 244.426 35.2264C245.06 34.3285 245.282 33.4623 245.282 27.9905C245.282 22.5186 245.06 21.663 244.426 20.7546V20.7546Z" fill="white"/>
<path d="M258.676 44.0993V11.8916H280.563V19.0008H266.588V24.2824H278.535V31.3388H266.588V37.0008H280.563V44.0571L258.676 44.0993Z" fill="white"/>
<path d="M289.194 18.5992C288.468 18.5599 287.77 18.309 287.185 17.8773C286.601 17.4456 286.156 16.8522 285.905 16.1702C285.654 15.4883 285.608 14.7478 285.774 14.0402C285.939 13.3326 286.308 12.689 286.835 12.1889C287.362 11.6887 288.024 11.354 288.74 11.2261C289.455 11.0981 290.192 11.1826 290.86 11.4689C291.528 11.7553 292.097 12.2311 292.497 12.8375C292.898 13.4438 293.112 14.1542 293.113 14.8809C293.11 15.3856 293.006 15.8847 292.806 16.348C292.605 16.8114 292.313 17.2293 291.947 17.5768C291.581 17.9242 291.148 18.1939 290.675 18.3696C290.202 18.5453 289.698 18.6234 289.194 18.5992ZM289.194 11.8175C288.595 11.8485 288.02 12.0541 287.537 12.409C287.055 12.7639 286.687 13.2524 286.479 13.8142C286.271 14.376 286.233 14.9863 286.368 15.5697C286.504 16.1532 286.807 16.6841 287.241 17.0968C287.675 17.5095 288.221 17.7859 288.81 17.8919C289.4 17.9978 290.008 17.9286 290.558 17.6928C291.109 17.457 291.578 17.0649 291.908 16.5652C292.238 16.0654 292.415 15.4798 292.415 14.8809C292.415 14.4653 292.329 14.0543 292.165 13.6726C292.001 13.2909 291.761 12.9465 291.46 12.6602C291.159 12.3738 290.802 12.1515 290.413 12.0067C290.024 11.8619 289.609 11.7975 289.194 11.8175V11.8175ZM290.25 15.24L291.074 16.8456H290.018L289.246 15.3562H288.507V16.8879H287.651V12.7787H289.627C290.451 12.7787 291.095 13.1907 291.095 14.0569C291.114 14.3216 291.04 14.5846 290.885 14.8005C290.731 15.0165 290.506 15.1719 290.25 15.24V15.24ZM289.563 13.5604H288.507V14.6168H289.563C289.954 14.6168 290.176 14.4266 290.176 14.0886C290.176 13.7506 289.944 13.571 289.563 13.571V13.5604Z" fill="white"/>
</svg>
