<svg width="281" height="52" viewBox="0 0 281 52" fill="none" xmlns="http://www.w3.org/2000/svg">
<path d="M281 0H0V52H281V0Z" fill="white"/>
<path d="M57 3H3V49H57V3Z" fill="#DB2B45"/>
<path d="M28.29 41.2449H20.45L31.54 10.7549H39.54L28.29 41.2449Z" fill="white"/>
<path d="M15.01 41.2449H7.17999L18.27 10.7549H26.27L15.01 41.2449Z" fill="white"/>
<path d="M41.56 41.2449H33.73L44.82 10.7549H52.82L41.56 41.2449Z" fill="white"/>
<path d="M278 3H57V49H278V3Z" fill="black"/>
<path d="M81.61 30.3698H77.02V41.2498H69.53V10.7598H81.61C88.37 10.7598 92.01 15.5498 92.01 20.5598C92.01 25.5698 88.37 30.3698 81.61 30.3698ZM81.26 17.4898H77.02V23.6598H81.26C81.6799 23.6837 82.1003 23.6216 82.4954 23.4774C82.8905 23.3332 83.2519 23.1098 83.5577 22.821C83.8634 22.5322 84.107 22.184 84.2734 21.7977C84.4399 21.4115 84.5257 20.9953 84.5257 20.5748C84.5257 20.1542 84.4399 19.738 84.2734 19.3518C84.107 18.9655 83.8634 18.6174 83.5577 18.3285C83.2519 18.0397 82.8905 17.8164 82.4954 17.6721C82.1003 17.5279 81.6799 17.4658 81.26 17.4898V17.4898Z" fill="white"/>
<path d="M109.29 41.2498L107.88 36.7098H98.5001L97.0001 41.2498H89.1801L100.27 10.7598H106.05L117.18 41.2498H109.29ZM103.29 22.3198L100.6 30.4898H105.91L103.29 22.3198Z" fill="white"/>
<path d="M135.62 41.2498L130.23 29.8998H127.7V41.2498H120.18V10.7598H132.28C139.05 10.7598 142.69 15.5498 142.69 20.5598C142.706 22.2311 142.243 23.872 141.357 25.2893C140.472 26.7067 139.199 27.8414 137.69 28.5598L144.29 41.2798L135.62 41.2498ZM131.94 17.4898H127.7V23.6598H131.94C132.36 23.6837 132.78 23.6216 133.175 23.4774C133.57 23.3332 133.932 23.1098 134.238 22.821C134.543 22.5322 134.787 22.184 134.953 21.7977C135.12 21.4115 135.206 20.9953 135.206 20.5748C135.206 20.1542 135.12 19.738 134.953 19.3518C134.787 18.9655 134.543 18.6174 134.238 18.3285C133.932 18.0397 133.57 17.8164 133.175 17.6721C132.78 17.5279 132.36 17.4658 131.94 17.4898V17.4898Z" fill="white"/>
<path d="M165.18 41.2498L158.18 28.7398L155.61 31.7398V41.2898H148.18V10.7598H155.58V21.5498L164.41 10.7598H173.57L163.11 23.0898L173.86 41.2498H165.18Z" fill="white"/>
<path d="M186.18 41.4898C181.52 41.4898 177.7 40.6398 174.62 37.4898L179.42 32.6898C181 34.2798 183.79 34.8298 186.23 34.8298C189.18 34.8298 190.59 33.8298 190.59 32.0898C190.629 31.4367 190.418 30.7933 190 30.2898C189.436 29.8141 188.736 29.5304 188 29.4798L184.32 28.9698C182.037 28.7727 179.885 27.823 178.2 26.2698C177.463 25.4373 176.897 24.467 176.537 23.4149C176.176 22.3627 176.028 21.2496 176.1 20.1398C176.1 14.5798 180.29 10.5098 187.23 10.5098C191.6 10.5098 194.9 11.5098 197.51 14.1498L192.8 18.8598C190.87 16.9298 188.35 17.0598 187.02 17.0598C184.4 17.0598 183.34 18.5598 183.34 19.8898C183.342 20.4193 183.554 20.9264 183.93 21.2998C184.507 21.8309 185.248 22.1486 186.03 22.1998L189.72 22.7098C191.941 22.8814 194.047 23.7692 195.72 25.2398C197.35 26.8298 197.99 29.0898 197.99 31.9198C197.99 38.1198 192.64 41.4898 186.18 41.4898Z" fill="white"/>
<path d="M202.91 41.2498V10.7598H210.41V41.2498H202.91Z" fill="white"/>
<path d="M236.4 38.2499C235.297 39.2694 234.002 40.0597 232.591 40.5747C231.18 41.0897 229.681 41.3192 228.18 41.2499H216.87V10.7599H228.18C229.68 10.6928 231.179 10.9234 232.59 11.4382C234.001 11.9531 235.296 12.7422 236.4 13.7599C239.95 17.3199 239.57 21.2199 239.57 26.0099C239.57 30.7999 239.95 34.6899 236.4 38.2499ZM231.26 19.1499C230.87 18.5667 230.329 18.0999 229.696 17.7988C229.062 17.4978 228.358 17.3738 227.66 17.4399H224.37V34.5699H227.66C228.359 34.635 229.063 34.5094 229.697 34.2066C230.331 33.9037 230.871 33.4349 231.26 32.8499C231.86 31.9999 232.07 31.1799 232.07 25.9999C232.07 20.8199 231.86 20.0099 231.26 19.1499V19.1499Z" fill="white"/>
<path d="M244.75 41.2498V10.7598H265.47V17.4898H252.24V22.4898H263.55V29.1698H252.24V34.5298H265.47V41.2098L244.75 41.2498Z" fill="white"/>
</svg>
