<?xml version="1.0" encoding="utf-8"?>
<!-- Generator: Adobe Illustrator 21.1.0, SVG Export Plug-In . SVG Version: 6.00 Build 0)  -->
<svg version="1.1" id="EPS" xmlns="http://www.w3.org/2000/svg" xmlns:xlink="http://www.w3.org/1999/xlink" x="0px" y="0px"
	 viewBox="0 0 60 60" style="enable-background:new 0 0 60 60;" xml:space="preserve">
<g>
	<path d="M55.06,2.27L3.66,27.02c-1.71,0.82-1.42,3.35,0.44,3.76l20.62,4.51l4.51,20.62c0.41,1.86,2.93,2.15,3.76,0.44L57.73,4.94
		C58.55,3.23,56.77,1.45,55.06,2.27z M7.57,28.46L49.7,8.18l-24.2,24.2L7.57,28.46z M31.54,52.43L27.62,34.5l24.2-24.2L31.54,52.43z
		"/>
	<path d="M20.29,38.29c-0.2-0.2-0.51-0.2-0.71,0L5.29,52.59c-0.2,0.2-0.2,0.51,0,0.71l1.41,1.41c0.2,0.2,0.51,0.2,0.71,0
		l12.88-12.88C21.27,40.85,21.27,39.27,20.29,38.29z"/>
	<path d="M9.01,42.77l2.47-2.47c0.98-0.98,0.98-2.56,0-3.54c-0.2-0.2-0.51-0.2-0.71,0l-3.89,3.89c-0.2,0.2-0.2,0.51,0,0.71
		l1.41,1.41C8.5,42.97,8.81,42.97,9.01,42.77z"/>
	<path d="M22.27,45.95l-7.34,7.34c-0.2,0.2-0.2,0.51,0,0.71l1.41,1.41c0.2,0.2,0.51,0.2,0.71,0l5.92-5.92
		c0.98-0.98,0.98-2.56,0-3.54C22.78,45.76,22.46,45.76,22.27,45.95z"/>
</g>
</svg>
