<?xml version="1.0" encoding="utf-8"?>
<!-- Generator: Adobe Illustrator 21.1.0, SVG Export Plug-In . SVG Version: 6.00 Build 0)  -->
<svg version="1.1" id="EPS" xmlns="http://www.w3.org/2000/svg" xmlns:xlink="http://www.w3.org/1999/xlink" x="0px" y="0px"
	 viewBox="0 0 60 60" style="enable-background:new 0 0 60 60;" xml:space="preserve">
<path d="M56.72,14.46l-53-5.89C2.54,8.44,1.5,9.37,1.5,10.56v9.94c0,1.1,0.9,2,2,2h4v27c0,1.1,0.9,2,2,2h8c1.1,0,2-0.9,2-2v-9h6v9
	c0,1.1,0.9,2,2,2h23c1.1,0,2-0.9,2-2v-27h4c1.1,0,2-0.9,2-2v-4.05C58.5,15.43,57.73,14.57,56.72,14.46z M49.5,48.5h-21v-9
	c0-1.1-0.9-2-2-2h-8c-1.1,0-2,0.9-2,2v9h-6v-26h6v4.3c0,0.66,0.54,1.2,1.2,1.2h9.6c0.66,0,1.2-0.54,1.2-1.2v-4.3h21V48.5z M18.3,22
	c0-2.32,1.88-4.2,4.2-4.2s4.2,1.88,4.2,4.2s-1.88,4.2-4.2,4.2S18.3,24.32,18.3,22z M55.5,19.5h-3H50H28.5v-2.3
	c0-0.66-0.54-1.2-1.2-1.2h-9.6c-0.66,0-1.2,0.54-1.2,1.2v2.3H9H7.5h-3v-7.82l51,5.67V19.5z"/>
</svg>
