<svg enable-background="new 0 0 60 60" viewBox="0 0 60 60" xmlns="http://www.w3.org/2000/svg"><path d="m10.5 37.5h41c.28 0 .5-.22.5-.5v-2c0-.28-.22-.5-.5-.5h-43c-.28 0-.5.22-.5.5 0 1.38 1.12 2.5 2.5 2.5z"/><path d="m10.5 43.5h35c.28 0 .5-.22.5-.5v-2c0-.28-.22-.5-.5-.5h-37c-.28 0-.5.22-.5.5 0 1.38 1.12 2.5 2.5 2.5z"/><path d="m45.5 46.5h-31c-.28 0-.5.22-.5.5 0 1.38 1.12 2.5 2.5 2.5h29c.28 0 .5-.22.5-.5v-2c0-.28-.22-.5-.5-.5z"/><path d="m51.5 40.5h-2c-.28 0-.5.22-.5.5v6c0 1.38 1.12 2.5 2.5 2.5.28 0 .5-.22.5-.5v-8c0-.28-.22-.5-.5-.5z"/><path d="m56.56 27.44h-25.84c-1.13-1.66-3.72-6.36.27-9.83 4.12-3.58 4.51-7.75 3.5-10.45-.74-1.99-2.23-3.35-3.89-3.61-.32-.05-.6.18-.6.49v1.04c0 .72.35 1.36.87 1.86.3.29.6.72.81 1.27.32.85 1.07 3.89-2.66 7.14-4.35 3.78-3.5 8.7-1.79 12.09h-23.79c-1.1 0-2 .9-2 2v15.56c0 6.38 5.18 11.56 11.56 11.56h43.56c1.1 0 2-.9 2-2v-25.12c0-1.11-.89-2-2-2zm-1.12 26h-42.44c-4.65 0-8.44-3.79-8.44-8.44v-14.44h50.88z"/></svg>