<svg enable-background="new 0 0 60 60" viewBox="0 0 60 60" xmlns="http://www.w3.org/2000/svg"><path d="m28.17 1.56c-14.18.89-25.72 12.43-26.61 26.61-1.03 16.36 11.84 30.04 27.93 30.33.28 0 .51-.23.51-.51v-.1c0-1.31-1.01-2.37-2.31-2.49-12.98-1.18-23.19-12.12-23.19-25.4 0-14.48 12.14-26.19 26.78-25.47 12.25.6 22.53 10.09 24.02 22.27 1.09 8.94-2.44 17.53-9.37 23.11-.01.01-1.03.87-2.79 1.44-1.84.59-3.69.57-3.73.57-4.36 0-7.91-3.55-7.91-7.91v-4.5h4c3.86 0 7-3.09 7-6.89v-10.3c0-1.1-.9-2-2-2h-3.55v-3.82c0-1.38-1.12-2.5-2.5-2.5-.28 0-.5.22-.5.5v5.82h-7.91v-5.82c0-.28-.22-.5-.5-.5-1.38 0-2.5 1.12-2.5 2.5v3.82h-3.54c-1.1 0-2 .9-2 2v10.29c0 3.8 3.14 6.89 7 6.89h4v4.5c0 6.02 4.9 10.91 10.88 10.91.09 0 2.35.04 4.68-.71 2.35-.76 3.7-1.9 3.79-1.99 6.77-5.44 10.65-13.54 10.65-22.21 0-16.32-13.79-29.48-30.33-28.44zm-7.67 31.05v-9.29h19v9.29c0 2.15-1.79 3.89-4 3.89h-11c-2.21 0-4-1.75-4-3.89z"/></svg>