<svg enable-background="new 0 0 60 60" viewBox="0 0 60 60" xmlns="http://www.w3.org/2000/svg"><circle cx="17.5" cy="24.5" r="1.5"/><path d="m35 18.5h-10c-.28 0-.5.22-.5.5 0 1.38 1.12 2.5 2.5 2.5h8c.28 0 .5-.22.5-.5v-2c0-.28-.22-.5-.5-.5z"/><path d="m57.06 26.7c-1.17-1.08-3.06-.21-3.06 1.37 0 .23.15.42.37.48.65.16 1.13.75 1.13 1.45 0 .83-.67 1.5-1.5 1.5s-1.5-.67-1.5-1.5c0-9.82-10.32-17.8-23-17.8-2.02 0-4.04.21-6.01.62-.85-1.52-1.82-2.6-2.95-3.27-3.1-1.84-6.71-1.06-6.87-1.02-1.05.24-1.52 1.48-.88 2.35.02.02 1.64 2.29 1.92 5.49-3.15 2.04-5.5 4.66-6.86 7.64l-4.99.5c-.78.07-1.36.72-1.36 1.49v7c0 .77.59 1.42 1.35 1.5l4.56.46c1.35 3.65 4.18 6.85 8.09 9.17v5.38c0 1.1.9 2 2 2h5c1.1 0 2-.9 2-2v-2.12c4.31.74 8.86.5 13-.7v2.81c0 1.1.9 2 2 2h5c1.1 0 2-.9 2-2v-7.51c2.7-2.29 4.53-5.05 5.4-8.02.89.47 1.95.66 3.07.42 1.7-.36 3.07-1.73 3.43-3.43.35-1.67-.24-3.24-1.34-4.26zm-12.08 12.63c-.16.14-.58.49-.93.78-.35.28-.55.71-.55 1.16v7.23h-3v-3.89c0-1.05-1.05-1.77-2.03-1.4-2.83 1.06-5.85 1.6-8.97 1.6-2.09 0-4.16-.24-6.15-.72-.94-.23-1.85.49-1.85 1.46v2.96h-3v-5.26c0-.55-.3-1.05-.77-1.31-.32-.18-.64-.35-.74-.42-3.24-1.94-5.58-4.55-6.71-7.48-.04-.11-.13-.38-.23-.69-.22-.71-.85-1.23-1.6-1.3l-3.95-.4v-4.29l4.32-.43c.69-.07 1.29-.52 1.55-1.16.11-.27.21-.51.25-.61 1.15-2.44 3.13-4.61 5.79-6.32.06-.04.22-.14.4-.25.52-.31.85-.86.89-1.46l.03-.41v-.09c-.1-2.13-.69-3.95-1.27-5.26.8.07 1.72.28 2.55.77.79.47 1.53 1.41 2.18 2.77.38.81 1.28 1.25 2.15 1.03.19-.05.34-.08.4-.1.89-.2 1.78-.37 2.69-.47 12.38-1.38 23.07 5.72 23.07 14.63 0 3.41-1.59 6.69-4.52 9.33z"/></svg>